<svg xmlns="http://www.w3.org/2000/svg" style="display:none">
  
  <!-- GitHub Icon -->
  <symbol id="icon-github" viewBox="0 -0.5 48 48">
    <title>Github</title>
    <path fill="currentColor" d="M23.999 0C10.746 0 0 10.787 0 24.097a24.09 24.09 0 0 0 16.414 22.861c1.2.222 1.639-.522 1.639-1.16 0-.573-.021-2.088-.034-4.098-6.676 1.456-8.085-3.23-8.085-3.23-1.09-2.784-2.663-3.525-2.663-3.525-2.18-1.495.165-1.465.165-1.465 2.407.17 3.674 2.483 3.674 2.483 2.143 3.683 5.618 2.62 6.986 2.002.217-1.557.838-2.619 1.524-3.221-5.33-.609-10.932-2.675-10.932-11.908 0-2.63.934-4.781 2.47-6.466-.247-.61-1.07-3.059.235-6.377 0 0 2.015-.647 6.6 2.47 1.915-.534 3.967-.801 6.008-.811 2.039.01 4.092.277 6.01.811 4.58-3.117 6.592-2.47 6.592-2.47 1.31 3.318.486 5.767.239 6.377 1.538 1.685 2.467 3.835 2.467 6.466 0 9.256-5.611 11.293-10.957 11.89.86.744 1.629 2.213 1.629 4.462 0 3.22-.03 5.819-.03 6.61 0 .644.432 1.394 1.65 1.157C41.13 43.763 48 34.738 48 24.097c0-13.31-10.746-24.097-24.001-24.097"/>
  </symbol>

  <!-- LinkedIn Icon -->
  <symbol id="icon-linkedin" viewBox="0 0 382 382">
    <title>LinkedIn</title>
    <path fill="currentColor" d="M347.445,0H34.555C15.471,0,0,15.471,0,34.555v312.889C0,366.529,15.471,382,34.555,382h312.889C366.529,382,382,366.529,382,347.444V34.555C382,15.471,366.529,0,347.445,0z M118.207,329.844c0,5.554-4.502,10.056-10.056,10.056H65.345c-5.554,0-10.056-4.502-10.056-10.056V150.403c0-5.554,4.502-10.056,10.056-10.056h42.806c5.554,0,10.056,4.502,10.056,10.056V329.844z M86.748,123.432c-22.459,0-40.666-18.207-40.666-40.666S64.289,42.1,86.748,42.1s40.666,18.207,40.666,40.666S109.208,123.432,86.748,123.432z M341.91,330.654c0,5.106-4.14,9.246-9.246,9.246H286.73c-5.106,0-9.246-4.14-9.246-9.246v-84.168c0-12.556,3.683-55.021-32.813-55.021c-28.309,0-34.051,29.066-35.204,42.11v97.079c0,5.106-4.139,9.246-9.246,9.246h-44.426c-5.106,0-9.246-4.14-9.246-9.246V149.593c0-5.106,4.14-9.246,9.246-9.246h44.426c5.106,0,9.246,4.14,9.246,9.246v15.655c10.497-15.753,26.097-27.912,59.312-27.912c73.552,0,73.131,68.716,73.131,106.472L341.91,330.654L341.91,330.654z"/>
  </symbol>

  <!-- Email Icon -->
  <symbol id="icon-email" viewBox="0 0 24 24">
    <title>Email</title>
    <path fill="currentColor" d="M20 4H4c-1.1 0-1.99.9-1.99 2L2 18c0 1.1.9 2 2 2h16c1.1 0 2-.9 2-2V6c0-1.1-.9-2-2-2zm0 4l-8 5-8-5V6l8 5 8-5v2z"/>
  </symbol>

  <!-- Twitter/X Icon -->
  <symbol id="icon-twitter" viewBox="0 0 24 24">
    <title>Twitter/X</title>
    <path fill="currentColor" d="M18.244 2.25h3.308l-7.227 8.26 8.502 11.24H16.17l-5.214-6.817L4.99 21.75H1.68l7.73-8.835L1.254 2.25H8.08l4.713 6.231zm-1.161 17.52h1.833L7.084 4.126H5.117z"/>
  </symbol>

  <!-- Portfolio/Briefcase Icon -->
  <symbol id="icon-portfolio" viewBox="0 0 24 24">
    <title>Portfolio</title>
    <path fill="currentColor" d="M20 6h-4V4c0-1.11-.89-2-2-2h-4c-1.11 0-2 .89-2 2v2H4c-1.11 0-1.99.89-1.99 2L2 19c0 1.11.89 2 2 2h16c1.11 0 2-.89 2-2V8c0-1.11-.89-2-2-2zm-6 0h-4V4h4v2z"/>
  </symbol>

  <!-- Download/CV Icon -->
  <symbol id="icon-download" viewBox="0 0 24 24">
    <title>Download</title>
    <path fill="currentColor" d="M19 9h-4V3H9v6H5l7 7 7-7zM5 18v2h14v-2H5z"/>
  </symbol>

  <!-- Code Icon -->
  <symbol id="icon-code" viewBox="0 0 24 24">
    <title>Code</title>
    <path fill="currentColor" d="M9.4 16.6L4.8 12l4.6-4.6L8 6l-6 6 6 6 1.4-1.4zm5.2 0l4.6-4.6-4.6-4.6L16 6l6 6-6 6-1.41-1.41z"/>
  </symbol>

  <!-- External Link Icon -->
  <symbol id="icon-external" viewBox="0 0 24 24">
    <title>External Link</title>
    <path fill="currentColor" d="M19 19H5V5h7V3H5c-1.11 0-2 .9-2 2v14c0 1.1.89 2 2 2h14c1.1 0 2-.9 2-2v-7h-2v7zM14 3v2h3.59l-9.83 9.83 1.41 1.41L19 6.41V10h2V3h-7z"/>
  </symbol>

  <!-- Arrow Right Icon -->
  <symbol id="icon-arrow-right" viewBox="0 0 24 24">
    <title>Arrow Right</title>
    <path fill="currentColor" d="M8.59 16.59L13.17 12 8.59 7.41 10 6l6 6-6 6-1.41-1.41z"/>
  </symbol>

  <!-- Menu/Hamburger Icon -->
  <symbol id="icon-menu" viewBox="0 0 24 24">
    <title>Menu</title>
    <path fill="currentColor" d="M3 18h18v-2H3v2zm0-5h18v-2H3v2zm0-7v2h18V6H3z"/>
  </symbol>

  <!-- Plus Icon -->
  <symbol id="icon-plus" viewBox="0 0 24 24">
    <path d="M12 5v14M5 12h14" stroke="currentColor" stroke-width="2" stroke-linecap="round" stroke-linejoin="round" fill="none"/>
  </symbol>

  <!-- Close Icon -->
  <symbol id="icon-close" viewBox="0 0 24 24">
    <title>Close</title>
    <path fill="currentColor" d="M19 6.41L17.59 5 12 10.59 6.41 5 5 6.41 10.59 12 5 17.59 6.41 19 12 13.41 17.59 19 19 17.59 13.41 12z"/>
  </symbol>

  <!-- Logo Icon -->
  <symbol id="icon-logo" viewBox="0 0 420 396">
    <path fill="none" stroke="none" d="M1 140V1.021h419.914v395.833H1zm160.742 120.936c.914-.912 1.908-1.758 2.731-2.745 8.489-10.182 11.508-22.46 13.475-35.904.04-.745.079-1.491.517-2.745.14-.838.278-1.675.483-3.362.385-2.628.6-5.298 1.232-7.865.275-1.114 1.195-2.53 2.182-2.937 11.582-4.772 20.633 1.242 20.636 13.605.008 30.974-.004 61.947.017 92.92.001 2.08.202 4.16.367 7.329 4.004-1.774 7.05-3.363 10.26-4.489 4.938-1.732 6.54-4.81 6.49-10.147-.276-29.638-.07-59.281-.204-88.922-.018-4.072 1.131-7.1 4.52-9.309 3.638-2.371 14.744-2 18.52 1.548.318 3.116.662 6.23.947 9.35 1.699 18.55 6.934 35.53 20.703 49.072 3.309 3.254 5.615 7.528 7.798 11.745-2.081 1.5-4.342 2.806-6.21 4.537-5.026 4.659-9.852 9.533-14.824 14.252-2.181 2.07-4.376 4.184-6.833 5.89-2.871 1.994-6.155 3.39-9.048 5.356-6 4.077-11.6 8.807-17.848 12.437-6.748 3.92-13.898 7.261-21.141 10.193-12.406 5.023-24.78 10.377-37.617 14.002-11.363 3.207-23.313 4.413-35.051 6.184-6.738 1.017-13.574 1.374-20.36 2.08-2.816.293-5.617.722-8.302 1.073.469 6.1 5.178 6.434 8.72 8.512 9.697 5.688 19.48 11.082 29.702 15.846 11.29 5.262 22.74 7.482 34.585 3.992 12.909-3.803 25.474-8.765 38.212-13.154 3.485-1.2 7.309-1.667 10.53-3.334 6.462-3.343 12.724-7.11 18.865-11.021 6.37-4.056 12.715-8.212 18.668-12.842 4.89-3.803 10.291-6.9 14.38-11.909 4.085-5.005 9.453-8.943 14.012-13.59 4.84-4.934 9.72-9.892 13.98-15.313 4.847-6.17 9.246-12.726 13.44-19.366 5.083-8.048 10.139-16.16 14.467-24.623 3.367-6.582 5.728-13.697 8.31-20.659 3.86-10.402 7.913-20.759 11.155-31.358 3.073-10.05 5.245-20.378 7.712-30.608.3-1.245-.07-2.641-.06-3.967.036-4.058-.144-8.142.294-12.158.158-1.45 2.884-3.693 2.65-3.95-3.06-3.369-.566-7.036-.68-10.44-.343-10.176-.124-20.371-.124-30.56 0-14.007-.026-28.015.018-42.022.012-3.801-1.737-5.593-5.528-5.571-6.685.039-13.374-.115-20.055.052-4.934.122-9.854.826-14.787.915-9.856.178-19.716.112-30.325.256l-26.036 5.875c1.702.854 2.29 1.142 2.872 1.443 7.382 3.808 14.713 7.718 22.158 11.399 7.143 3.531 8.83 9.194 3.922 15.276-4.481 5.554-9.408 10.747-14.078 16.152-5.102 5.905-10.53 11.582-15.118 17.868-9.88 13.538-12.531 29.519-13.907 45.688-.391 4.596-2.074 6.305-6.385 6.092-1.662-.082-3.332.015-4.998-.012-8.41-.14-11.743-3.494-11.747-11.931-.015-33.662.097-67.323-.117-100.983-.032-5.007 1.711-6.92 6.43-8.05 21.054-5.035 42.221-9.226 63.91-10.148 23.74-1.01 47.486-1.895 71.226-2.894 3.565-.15 4.64 1.534 4.576 4.833-.126 6.496.026 12.997-.04 19.496-.318 31.26 1.472 62.603-3.008 93.71-3.903 27.105-10.468 53.49-22.6 78.247-.95 1.937-1.628 4.006-2.433 6.013l1.44.803c10.146-13.285 20.881-26.169 30.295-39.955 12.445-18.226 24.005-37.066 35.574-55.871 2.148-3.49 3.56-8.057 3.583-12.137.25-44.324.162-88.65.151-132.977-.002-6.863-.265-7.138-6.963-7.14-34.494-.015-68.989-.017-103.483.02-1.98.002-4.027.124-5.926.63-20.87 5.557-41.906 10.59-62.516 16.99-21.337 6.626-41.379 16.578-60.942 27.33-22.983 12.63-44.221 27.9-63.194 45.91-11.82 11.22-22.538 23.75-32.685 36.537-8.12 10.232-15.276 21.378-21.683 32.78-6.643 11.82-11.869 24.436-18.323 37.198-.78 3.28-.805 7.039-2.512 9.731-2.76 4.35-4.09 8.74-4.508 14.2-.737 4.959-1.633 9.9-2.173 14.88-.794 7.328-4.807 14.83.919 22.496.294.444.588.888.978 2.126.965 2.519 1.766 5.116 2.929 7.54 2.593 5.407 5.44 10.692 8.04 16.097 1.58 3.287 2.233 7.232 4.436 9.97 8.22 10.215 16.988 19.988 25.38 30.068 3.35 4.024 6.37 8.403 12.264 8.453 8.98.076 17.964-.076 27.757.034 5.839 2.849 10.344-.653 15.456-2.684-2.043-1.67-3.615-2.955-4.711-4.72l10.262-13.664c10.253 4.432 19.812 8.63 29.442 12.658 1.41.59 3.283.848 4.726.46 8.064-2.171 16.076-4.538 24.067-6.966 1.522-.463 2.869-1.502 5.472-2.911-2.617-.698-3.67-1.087-4.757-1.251-17.343-2.626-33.331-8.778-47.954-18.45-6.178-4.085-6.778-6.882-2.167-12.518 4.823-5.896 10.153-11.377 15.022-17.238 3.355-4.039 6.302-8.417 9.36-12.717 0 0 .065.076.736-.062M125.84 59.008c3.36-2.02 6.737-4.01 10.076-6.063 6.39-3.929 12.758-7.892 19.905-11.93 25.95-14.04 53.428-24.312 81.865-32.548-2.215-1.42-4.2-2.308-6.223-2.402-10.086-.47-20.18-.846-30.275-1.005-3.753-.06-7.517.562-11.277.87-3.449.281-6.907.472-10.342.87-1.915.223-3.783.827-5.684 1.193-6.85 1.318-13.922 1.935-20.5 4.078-8.124 2.645-15.706 6.912-23.756 9.832-15.139 5.491-28.291 14.298-40.877 23.979-6.743 5.186-13.038 11.036-19.05 17.07-6.332 6.356-12.637 12.88-17.95 20.073-6.473 8.764-11.965 18.261-17.716 27.543-1.014 1.638-1.034 3.86-1.836 5.669-2.509 5.663-5.336 11.189-7.726 16.9-2.161 5.162-4.321 10.39-5.74 15.784-1.94 7.369-3.323 14.897-4.655 22.408-.686 3.869-.834 7.843-1.057 11.78-.17 2.989.336 6.066-.177 8.977-1.584 8.994-1.096 17.748 2.01 26.446 2.08-5.355 3.592-10.774 5.152-16.179 2.4-8.311 4.483-16.737 7.376-24.874 1.854-5.217 4.897-10.015 7.453-14.977 1.678-3.26 3.477-6.457 5.152-9.719 2.47-4.812 4.616-9.811 7.38-14.445 2.938-4.921 6.435-9.509 10.299-14.558 4.18-5.162 8.143-10.518 12.594-15.434 5.382-5.942 11.176-11.51 17.427-17.538 2.513-2.19 4.998-4.411 7.543-6.563 9.933-8.397 19.884-16.772 30.61-25.237m242.569 184.89c-7.11 9.163-14.213 18.331-21.331 27.488-3.56 4.58-6.893 9.367-10.77 13.66a1320 1320 0 0 1-27.164 29.156c-18.815 19.606-38.798 37.965-62.196 51.96-12.755 7.628-26.45 13.701-39.823 20.265-3.963 1.945-8.279 3.171-12.433 4.727l.623 1.294c76.484 1.835 136.7-28.186 179.76-92.435 18.504-27.608 37.338-95.134 29.55-108.033a349613 349613 0 0 0-36.216 51.917" opacity="1"/><path fill="currentColor" stroke="none" d="M33.886 204.91c5.846-12.268 11.072-24.884 17.715-36.704 6.407-11.402 13.563-22.548 21.683-32.78 10.147-12.787 20.865-25.317 32.685-36.537 18.973-18.01 40.211-33.28 63.194-45.91 19.563-10.752 39.605-20.704 60.942-27.33 20.61-6.4 41.646-11.433 62.516-16.99 1.899-.506 3.947-.628 5.926-.63 34.494-.037 68.989-.035 103.483-.02 6.698.002 6.961.277 6.963 7.14.01 44.326.1 88.653-.151 132.977-.024 4.08-1.435 8.646-3.583 12.137-11.569 18.805-23.13 37.645-35.574 55.871-9.414 13.786-20.149 26.67-30.296 39.955l-1.439-.803c.805-2.007 1.483-4.076 2.432-6.013 12.133-24.757 18.698-51.142 22.601-78.247 4.48-31.107 2.69-62.45 3.008-93.71.066-6.499-.086-13 .04-19.496.064-3.299-1.011-4.983-4.576-4.833-23.74 1-47.485 1.884-71.226 2.894-21.689.922-42.856 5.113-63.91 10.149-4.719 1.128-6.462 3.042-6.43 8.049.214 33.66.102 67.321.117 100.983.004 8.437 3.337 11.79 11.747 11.93 1.666.028 3.336-.069 4.998.013 4.31.213 5.994-1.496 6.385-6.092 1.376-16.17 4.028-32.15 13.907-45.688 4.587-6.286 10.016-11.963 15.118-17.868 4.67-5.405 9.597-10.598 14.078-16.152 4.907-6.082 3.22-11.745-3.922-15.276-7.445-3.68-14.776-7.59-22.158-11.4-.582-.3-1.17-.588-2.872-1.442 9.755-2.201 17.896-4.038 26.382-5.616.342.68.337 1.1.121 1.764.905 1.823 1.69 3.887 3.186 4.909 17.619 12.033 33.202 26.184 44.28 44.55 6.66 11.04 12.113 22.808 18.031 34.656-1.987 10.168-3.833 19.942-5.877 29.675-.304 1.45-1.54 2.703-2.372 3.618.236-5.06 1.376-9.841.615-14.297-3.505-20.533-12.026-39.025-24.588-55.57-7.756-10.217-14.009-10.508-22.977-1.272-5.898 6.074-11.178 12.744-17.023 18.872-11.784 12.356-17.115 27.407-18.8 43.997-.692 6.805 1.139 8.619 7.832 8.626 24.992.026 49.984.045 74.976.435-1.195 2.915-2.254 5.537-3.619 7.99-1.788 3.213-3.818 6.292-6.03 9.43-.66.08-1.035.161-1.775.264-21.798-.063-43.23-.149-64.807-.55-3.03-3.903-6.716-2.853-9.404-.837-3.9 2.924-8.002 3.511-12.515 3.292-3.731-2.658-14.837-3.03-18.475-.658-3.389 2.21-4.538 5.237-4.52 9.309.134 29.64-.072 59.284.204 88.922.05 5.337-1.552 8.415-6.49 10.147-3.21 1.126-6.256 2.715-10.26 4.489-.165-3.17-.366-5.249-.367-7.328-.02-30.974-.01-61.947-.017-92.921-.003-12.363-9.054-18.377-20.636-13.605-.987.407-1.907 1.823-2.182 2.937-.632 2.567-.847 5.237-1.518 8.4-.39 1.469-.493 2.402-.596 3.335-.04.746-.079 1.492-.449 2.76-4.966 13.433-16.538 23.364-16.546 38.264 0 0-.064-.076-.404.023-2.71 1.386-5.609 2.187-7.343 4.064-3.47 3.755-6.263 8.13-9.433 12.173-.578.736-1.566 1.225-2.455 1.633-5.42 2.491-10.893 4.868-16.286 7.416-1.674.79-3.151 1.996-4.718 3.011 1.172 1.507 2.064 3.452 3.58 4.422 2.468 1.58 3.025 3.184 1.808 5.784-.544 1.161-.774 2.575-.764 3.871.038 4.688-2.866 6.136-5.656 6.637l-6.829-7.112c-1.019-2.776-1.307-6.526-3.328-8.511-6.111-6.004-12.845-11.383-19.45-16.869-1.752-1.454-3.916-2.413-6.159-3.789-2.896-3.81-6.4-7.085-7.999-11.114-6.795-17.122-13.652-34.29-14.813-53.02-.145-2.335-1.045-3.854-4.057-3.813-5.281.072-10.57-.444-16.291-.763a405 405 0 0 0-6.588-.207m45.128 4.623c3.492 26.368 13.494 49.855 31.196 69.848 4.239 4.788 9.114 5.156 14.083.876 4.503-3.878 8.654-8.228 12.567-12.712 6.065-6.95 12.466-13.752 17.51-21.416 7.298-11.085 9.286-23.958 9.836-37.068.137-3.282-1.38-4.057-4.14-4.056-25.628.016-51.256.02-76.883 0-2.54-.002-4.24.762-4.17 4.528m84.003-39.923c-2.732-7.969-3.958-16.963-8.532-23.676-7.803-11.45-17.686-21.487-26.744-32.076-2.206-2.58-4.736-2.71-7.453-.608-3.413 2.642-7.08 4.985-10.305 7.834-6.32 5.58-13.65 10.564-18.326 17.339-8.886 12.874-10.682 28.398-12.601 43.604-.408 3.231 1.087 4.976 4.567 4.97 25.302-.04 50.604-.03 75.905-.02 2.796.001 4.538-1.145 4.407-4.114-.182-4.135-.526-8.263-.918-13.253M150 116.5c2.056 2.393 4.033 4.859 6.18 7.166 10.888 11.697 18.745 24.945 21.204 40.992.88 5.742 1.613 11.51 2.69 17.214.307 1.624 1.203 3.772 2.487 4.473 9.405 5.135 20.418-1.377 20.428-11.953.031-31.812.018-63.624-.006-95.436 0-1.753-.252-3.505-.425-5.758-2.047.436-3.534.548-4.862 1.067-9.892 3.86-19.892 7.488-29.578 11.815-8.037 3.59-15.766 7.902-23.485 12.158-3.702 2.041-4.475 6.549-1.954 9.828 2.122 2.76 4.535 5.297 7.321 8.434" opacity="1"/><path fill="currentColor" stroke="none" d="M368.613 243.602c12.15-17.42 24.098-34.544 36.013-51.622 7.788 12.899-11.046 80.425-29.55 108.033-43.06 64.249-103.276 94.27-179.76 92.435l-.623-1.294c4.154-1.556 8.47-2.782 12.433-4.727 13.374-6.564 27.068-12.637 39.823-20.265 23.398-13.995 43.381-32.354 62.196-51.96 9.196-9.584 18.26-19.3 27.163-29.156 3.878-4.293 7.211-9.08 10.77-13.66 7.119-9.157 14.222-18.325 21.535-27.784" opacity="1"/><path fill="#e7832a" stroke="none" d="M341.066 187.072c.804-1.344 2.04-2.598 2.344-4.047 2.044-9.733 3.89-19.507
      6.135-29.815-.974-4.762-2.283-8.976-3.229-13.313 1.135-1.97 2.498-3.796 2.57-5.67.268-6.965.08-13.947.12-20.922.074-12.45-.17-24.92.477-37.34.24-4.611-.866-6.027-5.173-5.995-12.289.093-24.592-.291-36.864.177-6.205.237-12.355 1.912-18.846 2.844-1.744-1.395-3.171-2.696-4.599-3.998.005-.421.01-.842.044-1.577 9.887-.348 19.747-.282 29.603-.46 4.933-.089 9.853-.793 14.787-.915 6.681-.167 13.37-.013 20.055-.052 3.79-.022 5.54 1.77 5.528 5.57-.044 14.008-.018 28.016-.018 42.023 0 10.189-.219 20.384.124 30.56.114 3.404-2.38 7.071.68 10.44.234.257-2.492 2.5-2.65 3.95-.438 4.016-.258 8.1-.293 12.158-.012 1.326.36 2.722.06 3.967-2.468 10.23-4.64 20.558-7.713 30.608-3.242 10.6-7.295 20.956-11.154 31.358-2.583 6.962-4.944 14.077-8.31 20.66-4.329 8.462-9.385 16.574-14.468 24.622-4.194 6.64-8.593 13.196-13.44 19.366-4.26 5.421-9.14 10.38-13.98 15.313-4.56 4.647-9.927 8.585-14.013 13.59-4.088 5.009-9.488 8.106-14.38 11.909-5.952 4.63-12.297 8.786-18.667 12.842-6.141 3.91-12.403 7.678-18.865 11.021-3.221 1.667-7.045 2.134-10.53 3.334-12.738 4.39-25.303 9.35-38.212 13.154-11.845 3.49-23.295 1.27-34.585-3.992-10.222-4.764-20.005-10.158-29.702-15.846-3.542-2.078-8.251-2.411-8.72-8.512 2.685-.351 5.486-.78 8.302-1.073 6.786-.706 13.622-1.063 20.36-2.08 11.738-1.771 23.688-2.977 35.05-6.184 12.838-3.625 25.212-8.979 37.618-14.002 7.243-2.932 14.393-6.273 21.14-10.193 6.249-3.63 11.85-8.36 17.85-12.437 2.892-1.966 6.176-3.362 9.047-5.356 2.457-1.706 4.652-3.82 6.833-5.89 4.972-4.719 9.798-9.593 14.825-14.252 1.867-1.731 4.128-3.037 6.842-4.778 4.439-3.44 8.244-6.639 12.328-9.712-.028 1.625.011 3.33-.721 4.582-1.309 2.24-3.083 4.206-5.018 6.338-4.582 2.118-5.857 6.449-5.156 10.042 1.107 5.674-1.01 9.67-4.899 12.496-5.071 3.683-10.55 7.325-16.421 9.263-8.089 2.67-15.594 5.615-21.08 12.45-.788.981-2.093 1.685-3.298 2.173-13.508 5.474-26.995 11.006-40.59 16.258-8.606 3.324-18.12 4.182-25.888 9.87-1.786 1.308-4.298 1.949-6.558 2.226-9.893 1.21-19.815 2.172-29.726 3.228-4.44.473-8.88.953-13.32 1.43 11.68 5.462 23.347 10.286 35.33 14.118 4.333 1.386 9.568 1.17 14.143.331a339 339 0 0 0 31.081-7.221c5.585-1.58 12.585-1.001 15.69-7.84.152-.334 1.02-.716 1.274-.574 4.98 2.792 6.915.069 8.28-4.27.295-.94 1.587-1.737 2.597-2.25 4.587-2.325 9.295-4.415 13.85-6.798 6.156-3.218 12.455-6.259 18.231-10.074 4.363-2.882 7.69-7.33 12.05-10.221 4.767-3.163 7.969-6.838 8.754-12.6.21-1.548.975-3.233 1.993-4.421 3.565-4.165 6.957-8.614 11.136-12.089 8.628-7.174 13.64-16.565 18.185-26.776 1.891-2.39 3.062-5.512 5.226-6.536 4.885-2.312 10.169-3.626 9.305-10.768-.068-.568.956-1.268 1.469-1.909 4.782-5.973 7.544-12.804 8.66-20.34.193-1.302.232-2.689.733-3.871 3.392-8.018 6.93-15.974 10.305-23.998.454-1.081.261-2.435.368-3.662l-1.38-.316c-1.072 2.14-2.033 4.345-3.25 6.4-1.095 1.848-2.287 3.985-5.022 2.055 1.926-3.137 3.956-6.216 5.744-9.43 1.365-2.452 2.424-5.074 3.583-8.021-.036-.4.029-.33.029-.33m-284.01-62.976c-3.253 4.733-6.75 9.32-9.687 14.242-2.765 4.634-4.912 9.633-7.381 14.445-1.675 3.262-3.474 6.46-5.152 9.719-2.556 4.962-5.599 9.76-7.453 14.977-2.893 8.137-4.977 16.563-7.376 24.874-1.56 5.405-3.072 10.824-5.151 16.179-3.107-8.698-3.595-17.452-2.01-26.446.512-2.911.006-5.988.176-8.977.223-3.937.371-7.911 1.057-11.78 1.332-7.511 2.715-15.039 4.654-22.408 1.42-5.394 3.58-10.622 5.74-15.785 2.39-5.71 5.218-11.236 7.727-16.899.802-1.81.822-4.031 1.836-5.669 5.751-9.282 11.243-18.779 17.716-27.543 5.313-7.192 11.618-13.717 17.95-20.073 6.012-6.034 12.307-11.884 19.05-17.07 12.586-9.68 25.738-18.488 40.877-23.979 8.05-2.92 15.632-7.187 23.756-9.832 6.578-2.143 13.65-2.76 20.5-4.078 1.901-.366 3.769-.97 5.684-1.192 3.435-.4 6.893-.59 10.342-.871 3.76-.308 7.524-.93 11.277-.87 10.095.16 20.19.535 30.275 1.005 2.023.094 4.008.982 6.223 2.402-28.437 8.236-55.915 18.507-82.492 32.296-4.57-3.197-8.476-1.464-12.352-.103-2.795.98-5.462 2.476-8.326 3.08-10.255 2.163-12.623 5.84-9.456 15.35-9.945 8.383-19.896 16.758-29.83 25.155-2.544 2.152-5.03 4.373-8.134 6.555-2.335.371-4.405.273-5.765 1.208-7.928 5.446-16.007 10.75-23.41 16.858-6.175 5.095-5.951 8.681-.865 15.23m15.58-47.923c-3.173 3.068-6.47 6.02-9.483 9.238-2.798 2.988-4.943 6.658-7.988 9.33-8.677 7.61-16.022 15.994-18.881 27.543-.142.574-.728 1.03-1.073 1.563-1.387 2.143-3.15 4.144-4.06 6.476-1.984 5.088-3.603 10.325-5.223 15.547-.634 2.047-.87 4.218-1.289 6.332l1.412.438c.715-1.364 1.333-2.79 2.164-4.08 3.286-5.105 6.597-10.195 9.987-15.232 1.48-2.198 3.588-4.056 4.703-6.405 12.5-26.306 33.767-44.281 57.028-60.395 1.829-1.267 3.485-2.874 5.464-3.808 2.896-1.367 6.013-2.27 9.889-3.681l-5.128-3.518c9.027.238 11.019-5.657 14.761-10.893-1.59-.179-2.275-.45-2.833-.288-7.02 2.042-14.238 3.633-20.944 6.44-3.682 1.543-6.541 5.11-9.685 7.862-2.956 2.588-5.81 5.294-8.69 7.97a964 964 0 0 0-10.131 9.56M171.08 21.5l17.167-5.26-.362-1.84c-1.554-.133-3.203-.674-4.646-.335-9.187 2.16-18.36 4.39-27.47 6.852-4.76 1.287-5.511 4.942-4.71 9.391 6.593-2.934 12.927-5.752 20.02-8.808" opacity="1"/><path fill="#ec7f1a" stroke="none" d="M33.582 205.157c2.355-.195 4.406-.142 6.916.393.923 5.718.927 11.045 1.954 16.168 1.866 9.314 4 18.606 6.676 27.715 1.86 6.33 4.534 12.47 7.37 18.445 2.028 4.269 5.017 8.072 7.419 12.175 3.297 5.63 5.763 11.902 9.816 16.9 6.118 7.545 13.171 14.36 20.125 21.18 1.647 1.616 4.477 2.025 6.898 3.314 3.656 2.913 7.199 5.473 10.688 8.104 1.918 1.446 3.745 3.012 5.613 4.524l5.187 4.24c-5.112 2.031-9.617 5.533-16.124 2.395-6.453-3.398-12.196-6.592-18.068-9.527-.893-.446-2.511.036-3.578.544-8.463 4.03-15.826 2.131-20.27-6.177-3.824-7.147-13.403-9.57-14.746-18.59-.065-.44-1.18-.634-1.58-1.126-2.18-2.681-4.893-5.143-6.3-8.197-2.98-6.473-5.523-13.18-7.742-19.956-1.445-4.415-3.77-7.684-7.95-9.638-.294-.444-.588-.888-.895-2.07a8912 8912 0 0 1 1.96-37.08c-.276-5.018 1.056-9.407 3.815-13.758 1.707-2.692 1.732-6.45 2.816-9.978" opacity="1"/><path fill="currentColor" stroke="none" d="M117.295 333.835c-2.106-1.272-3.933-2.838-5.851-4.284-3.49-2.631-7.032-5.191-10.455-8.38 2.735-3.986 5.362-7.38 8.01-10.76 1.607-2.049 2.164-3.814-.163-5.981-4.091-3.811-8.248-7.648-11.731-11.992-4.72-5.885-8.83-12.258-13.202-18.42 1.974 1.185 4.138 2.144 5.89 3.598 6.605 5.486 13.339 10.865 19.45 16.869 2.021 1.985 2.31 5.735 3.328 8.51l6.829 7.113c2.79-.5 5.694-1.95 5.656-6.637-.01-1.296.22-2.71.764-3.871 1.217-2.6.66-4.204-1.809-5.784-1.515-.97-2.407-2.915-3.58-4.422 1.568-1.015 3.045-2.22 4.719-3.011 5.393-2.548 10.866-4.925 16.286-7.416.889-.408 1.877-.897 2.455-1.633 3.17-4.043 5.963-8.418 9.433-12.173 1.734-1.877 4.632-2.678 7.379-4.027-2.755 4.164-5.702 8.542-9.057 12.581-4.87 5.861-10.199 11.342-15.022 17.238-4.611 5.636-4.011 8.433 2.167 12.518q21.936 14.51 47.954 18.45c1.087.164 2.14.553 4.757 1.25-2.603 1.41-3.95 2.45-5.472 2.912-7.99 2.428-16.003 4.795-24.067 6.966-1.443.388-3.315.13-4.726-.46-9.63-4.028-19.19-8.226-29.442-12.658a2347 2347 0 0 1-10.5 13.904m167.803-65.833c-3.805 3.198-7.61 6.397-11.757 9.63-3.108-3.77-5.414-8.043-8.723-11.297-13.77-13.542-19.004-30.522-20.703-49.073-.285-3.119-.63-6.233-.97-9.794 4.491-.226 8.593-.813 12.493-3.737 2.688-2.016 6.373-3.066 8.983.869-6.124.737-6.772 1.415-6.36 7.279.161 2.306.503 4.615.972 6.88 2.213 10.705 3.817 21.656 11.119 30.493 4.627 5.601 9.353 11.12 13.946 16.972.274.79.637 1.284 1 1.778" opacity="1"/><path fill="#e78329" stroke="none" d="M25.934 268.44c4.133 1.557 6.457 4.826 7.902 9.24 2.219 6.777 4.763 13.484 7.742 19.957 1.407 3.054 4.12 5.516 6.3 8.197.4.492 1.515.687 1.58 1.126 1.343 9.02 10.922 11.443 14.745 18.59 4.445 8.308 11.808 10.207 20.271 6.177 1.067-.508 2.685-.99 3.578-.544 5.872 2.935 11.615 6.129 17.662 9.444-8.72.262-17.702.414-26.683.338-5.894-.05-8.914-4.429-12.264-8.453-8.392-10.08-17.16-19.853-25.38-30.068-2.203-2.738-2.856-6.683-4.437-9.97-2.598-5.405-5.446-10.69-8.039-16.097-1.163-2.424-1.964-5.021-2.977-7.937" opacity="1"/><path fill="#ee811a" stroke="none" d="M57.361 123.938c-5.391-6.39-5.615-9.977.56-15.072 7.403-6.108 15.482-11.412 23.41-16.858 1.36-.935 3.43-.837 5.447-1.06-5.341 5.887-11.135 11.456-16.517 17.398-4.45 4.916-8.414 10.272-12.9 15.592" opacity="1"/><path fill="#ee811b" stroke="none" d="M125.45 59.049c-3.557-9.468-1.189-13.146 9.066-15.309 2.864-.604 5.531-2.1 8.326-3.08 3.876-1.36 7.782-3.094 11.968.149-6.136 4.244-12.504 8.207-18.894 12.136a244 244 0 0 1-10.466 6.103" opacity="1"/><path fill="currentColor" stroke="none" d="M161.406 261.005c-.327-14.83 11.245-24.762 16.18-37.824-1.605 12.55-4.624 24.828-13.113 35.01-.823.987-1.817 1.833-3.067 2.814" opacity="1"/><path fill="#e7832a" stroke="none" d="M26.604 229.114c-.31 11.893-.968 24.008-1.632 36.566-5.694-6.636-1.68-14.137-.887-21.465.54-4.98 1.436-9.921 2.52-15.1" opacity="1"/><path fill="currentColor" stroke="none" d="M178.265 219.796c-.096-.679.007-1.612.364-2.656.114.727-.025 1.564-.364 2.656" opacity="1"/><path fill="none" stroke="none" d="M79.023 209.096c-.08-3.33 1.62-4.093 4.16-4.091 25.627.02 51.255.016 76.883 0 2.76-.001 4.277.774 4.14 4.056-.55 13.11-2.538 25.983-9.835 37.068-5.045 7.664-11.446 14.465-17.511 21.416-3.913 4.484-8.064 8.834-12.567 12.712-4.97 4.28-9.844 3.912-14.083-.876-17.702-19.993-27.704-43.48-31.187-70.285m262.014-22.062c-24.956.01-49.948-.009-74.94-.035-6.693-.007-8.524-1.821-7.833-8.626 1.686-16.59 7.017-31.641 18.801-43.997 5.845-6.128 11.125-12.798 17.023-18.872 8.968-9.236 15.22-8.945 22.977 1.272 12.562 16.545 21.083 35.037 24.588 55.57.76 4.456-.379 9.236-.615 14.297.028.43-.037.358-.001.39m-177.962-16.994c.333 4.56.677 8.689.86 12.824.13 2.969-1.612 4.115-4.408 4.114-25.301-.01-50.603-.02-75.905.02-3.48.006-4.975-1.739-4.567-4.97 1.919-15.206 3.715-30.73 12.6-43.604 4.676-6.775 12.008-11.759 18.327-17.34 3.225-2.848 6.892-5.19 10.305-7.833 2.717-2.103 5.247-1.972 7.453.608 9.058 10.589 18.941 20.625 26.744 32.076 4.574 6.713 5.8 15.707 8.591 24.105m-13.327-53.79c-2.535-2.886-4.948-5.423-7.07-8.183-2.52-3.28-1.748-7.787 1.953-9.828 7.72-4.256 15.45-8.567 23.486-12.158 9.686-4.327 19.686-7.954 
      29.578-11.815
        1.328-.519 2.815-.631 4.862-1.067.173 2.253.424 4.005.425 5.758.024 31.812.037 63.624.006 95.436-.01 10.576-11.023 17.088-20.428 11.953-1.284-.701-2.18-2.85-2.486-4.473-1.078-5.704-1.811-11.472-2.691-17.214-2.46-16.047-10.316-29.295-21.203-40.992-2.148-2.307-4.125-4.773-6.432-7.417m134.438 149.679c-4.681-5.555-9.407-11.075-14.034-16.676-7.302-8.837-8.906-19.788-11.12-30.493a52 52 0 0 1-.971-6.88c-.412-5.864.236-6.542 6.507-6.964 21.852.054 43.283.14 64.973.548-3.675 7.048-7.26 14.01-11.636 20.435-4.635 6.802-9.985 13.12-15.093 19.594-3.018 3.826-6.577 7.144-9.337 11.278-2.365 3.541-6.138 6.142-9.289 9.158m-200.552 7.899c4.64 6.353 8.751 12.726 13.47 18.61 3.484 4.345 7.64 8.182 11.732 11.993 2.327 2.167 1.77 3.932.163 5.982-2.648 3.378-5.275 6.773-8.145 10.436-2.519-.69-5.349-1.1-6.996-2.715-6.954-6.82-14.007-13.635-20.125-21.18-4.053-4.998-6.52-11.27-9.816-16.9-2.402-4.103-5.391-7.906-7.418-12.175-2.837-5.975-5.511-12.115-7.37-18.445-2.677-9.109-4.811-18.4-6.677-27.715-1.027-5.123-1.03-10.45-1.52-16.119 5.263-.163 10.552.353 15.833.281 3.012-.041 3.912 1.478 4.057 3.813 1.16 18.73 8.018 35.898 14.813 53.02 1.6 4.03 5.103 7.303 7.999 11.114" opacity="1"/><path fill="#ee811c" stroke="none" d="M284.098 266.224c3.239-3.312 7.012-5.913 9.377-9.454 2.76-4.134 6.319-7.452 9.337-11.278 5.108-6.474 10.458-12.792 15.093-19.594 4.376-6.424 7.961-13.387 12.002-20.457.482-.426.856-.506 1.517-.587 3.021 1.93 4.213-.208 5.308-2.056 1.217-2.055 2.178-4.26 3.25-6.4l1.38.316c-.107 1.227.086 2.58-.368 3.662-3.375 8.024-6.913 15.98-10.305 23.998-.5 1.182-.54 2.57-.732 3.87-1.117 7.537-3.88 14.368-8.661 20.341-.513.641-1.537 1.34-1.469 1.91.864 7.14-4.42 8.455-9.305 10.767-2.164 1.024-3.335 4.146-5.525 6.39-1.492-1.038-2.417-2.15-4.156-4.241-2.532 5.54-9.637 4.215-12.04 10.433-1.145 2.964-4.378 5.993-8.807 5.152 1.58-2.08 3.353-4.048 4.662-6.287.732-1.253.693-2.957.721-4.582-.642-.62-1.005-1.114-1.28-1.903" opacity="1"/><path fill="#c67c3c" stroke="none" d="M283.79 69.235c1.639 1.06 3.066 2.361 5.073 3.977 3.591 2.602 6.54 4.98 9.627 7.161 12.304 8.697 22.464 19.505 31.024 31.81 6.162 8.858 13.32 17.167 16.439 27.837 1.309 4.214 2.618 8.428 3.67 12.783-6.254-11.301-11.707-23.069-18.367-34.11-11.078-18.365-26.661-32.516-44.28-44.549-1.496-1.022-2.281-3.086-3.186-4.909" opacity="1"/><path fill="#f0801f" stroke="none" d="M279.638 279.047c4.785.79 8.018-2.24 9.163-5.203 2.403-6.218 9.508-4.893 12.04-10.433 1.739 2.09 2.664 3.203 3.887 4.46-3.978 10.138-8.989 19.53-17.617 26.703-4.179 3.475-7.571 7.924-11.136 12.089-1.018 1.188-1.782 2.873-1.993 4.421-.785 5.762-3.987 9.437-8.755 12.6-4.358 2.89-7.686 7.339-12.049 10.221-5.776 3.815-12.075 6.856-18.23 10.074-4.556 2.383-9.264 4.473-13.851 6.799-1.01.512-2.302 1.31-2.597 2.248-1.365 4.34-3.3 7.063-8.28 4.271-.253-.142-1.122.24-1.274.573-3.105 6.84-10.105 6.26-15.69 7.84a339 339 0 0 1-31.08 7.222c-4.576.84-9.81 1.055-14.143-.331-11.984-3.832-23.65-8.656-35.332-14.118 4.44-.477 8.88-.957 13.32-1.43 9.912-1.056 19.834-2.018 29.727-3.228 2.26-.277 4.772-.918 6.558-2.225 7.768-5.689 17.282-6.547 25.888-9.871 13.595-5.252 27.082-10.784 40.59-16.258 1.205-.488 2.51-1.192 3.298-2.174 5.486-6.834 12.991-9.778 21.08-12.449 5.871-1.938 11.35-5.58 16.421-9.263 3.89-2.825 6.006-6.822 4.899-12.496-.7-3.593.574-7.924 5.156-10.042" opacity="1"/><path fill="#ef801f" stroke="none" d="M346.316 139.897c-3.482-10.547-10.64-18.856-16.802-27.714-8.56-12.305-18.72-23.113-31.024-31.81-3.087-2.182-6.036-4.56-9.311-7.068 5.912-1.246 12.062-2.92 18.267-3.158 12.272-.468 24.575-.084 36.864-.177 4.307-.032 5.414 1.384 5.173 5.994-.647 12.422-.403 24.89-.476 37.341-.042 6.975.147 13.957-.12 20.922-.073 1.874-1.437 3.7-2.57 5.67M72.88 75.91c3.457-3.276 6.661-6.3 9.888-9.298 2.879-2.676 5.733-5.382 8.689-7.97 3.144-2.752 6.003-6.32 9.685-7.861 6.706-2.808 13.924-4.399 20.944-6.441.558-.163 1.243.11 2.833.288-3.742 5.236-5.734 11.131-14.761 10.893l5.128 3.518c-3.876 1.411-6.993 2.314-9.89 3.681-1.978.934-3.634 2.541-5.463 3.808-23.261 16.114-44.528 34.089-57.028 60.395-1.115 2.349-3.223 4.207-4.703 6.405-3.39 5.037-6.7 10.127-9.987 15.232-.83 1.29-1.449 2.716-2.164 4.08l-1.412-.438c.418-2.114.655-4.285 1.29-6.332 1.619-5.222 3.238-10.459 5.222-15.547.91-2.332 2.673-4.333 4.06-6.476.345-.533.931-.99 1.073-1.563 2.859-11.55 10.204-19.933 18.88-27.544 3.046-2.67 5.191-6.341 7.989-9.329 3.013-3.218 6.31-6.17 9.726-9.501" opacity="1"/><path fill="#ee811f" stroke="none" d="M170.7 21.618a3291 3291 0 0 0-19.642 8.69c-.8-4.45-.05-8.105 4.711-9.392 9.11-2.462 18.283-4.692 27.47-6.852 1.443-.339 3.092.202 4.646.336l.362 1.839c-5.722 1.753-11.445 3.507-17.547 5.379" opacity="1"/>
  </symbol>
  
</svg>