<svg xmlns="http://www.w3.org/2000/svg" style="display:none">
  
  <!-- GitHub Icon -->
  <symbol id="icon-github" viewBox="0 -0.5 48 48">
    <title>Github</title>
    <path fill="currentColor" d="M23.999 0C10.746 0 0 10.787 0 24.097a24.09 24.09 0 0 0 16.414 22.861c1.2.222 1.639-.522 1.639-1.16 0-.573-.021-2.088-.034-4.098-6.676 1.456-8.085-3.23-8.085-3.23-1.09-2.784-2.663-3.525-2.663-3.525-2.18-1.495.165-1.465.165-1.465 2.407.17 3.674 2.483 3.674 2.483 2.143 3.683 5.618 2.62 6.986 2.002.217-1.557.838-2.619 1.524-3.221-5.33-.609-10.932-2.675-10.932-11.908 0-2.63.934-4.781 2.47-6.466-.247-.61-1.07-3.059.235-6.377 0 0 2.015-.647 6.6 2.47 1.915-.534 3.967-.801 6.008-.811 2.039.01 4.092.277 6.01.811 4.58-3.117 6.592-2.47 6.592-2.47 1.31 3.318.486 5.767.239 6.377 1.538 1.685 2.467 3.835 2.467 6.466 0 9.256-5.611 11.293-10.957 11.89.86.744 1.629 2.213 1.629 4.462 0 3.22-.03 5.819-.03 6.61 0 .644.432 1.394 1.65 1.157C41.13 43.763 48 34.738 48 24.097c0-13.31-10.746-24.097-24.001-24.097"/>
  </symbol>

  <!-- LinkedIn Icon -->
  <symbol id="icon-linkedin" viewBox="0 0 382 382">
    <title>LinkedIn</title>
    <path fill="currentColor" d="M347.445,0H34.555C15.471,0,0,15.471,0,34.555v312.889C0,366.529,15.471,382,34.555,382h312.889C366.529,382,382,366.529,382,347.444V34.555C382,15.471,366.529,0,347.445,0z M118.207,329.844c0,5.554-4.502,10.056-10.056,10.056H65.345c-5.554,0-10.056-4.502-10.056-10.056V150.403c0-5.554,4.502-10.056,10.056-10.056h42.806c5.554,0,10.056,4.502,10.056,10.056V329.844z M86.748,123.432c-22.459,0-40.666-18.207-40.666-40.666S64.289,42.1,86.748,42.1s40.666,18.207,40.666,40.666S109.208,123.432,86.748,123.432z M341.91,330.654c0,5.106-4.14,9.246-9.246,9.246H286.73c-5.106,0-9.246-4.14-9.246-9.246v-84.168c0-12.556,3.683-55.021-32.813-55.021c-28.309,0-34.051,29.066-35.204,42.11v97.079c0,5.106-4.139,9.246-9.246,9.246h-44.426c-5.106,0-9.246-4.14-9.246-9.246V149.593c0-5.106,4.14-9.246,9.246-9.246h44.426c5.106,0,9.246,4.14,9.246,9.246v15.655c10.497-15.753,26.097-27.912,59.312-27.912c73.552,0,73.131,68.716,73.131,106.472L341.91,330.654L341.91,330.654z"/>
  </symbol>

  <!-- Email Icon -->
  <symbol id="icon-email" viewBox="0 0 24 24">
    <title>Email</title>
    <path fill="currentColor" d="M20 4H4c-1.1 0-1.99.9-1.99 2L2 18c0 1.1.9 2 2 2h16c1.1 0 2-.9 2-2V6c0-1.1-.9-2-2-2zm0 4l-8 5-8-5V6l8 5 8-5v2z"/>
  </symbol>

  <!-- Twitter/X Icon -->
  <symbol id="icon-twitter" viewBox="0 0 24 24">
    <title>Twitter/X</title>
    <path fill="currentColor" d="M18.244 2.25h3.308l-7.227 8.26 8.502 11.24H16.17l-5.214-6.817L4.99 21.75H1.68l7.73-8.835L1.254 2.25H8.08l4.713 6.231zm-1.161 17.52h1.833L7.084 4.126H5.117z"/>
  </symbol>

  <!-- Portfolio/Briefcase Icon -->
  <symbol id="icon-portfolio" viewBox="0 0 24 24">
    <title>Portfolio</title>
    <path fill="currentColor" d="M20 6h-4V4c0-1.11-.89-2-2-2h-4c-1.11 0-2 .89-2 2v2H4c-1.11 0-1.99.89-1.99 2L2 19c0 1.11.89 2 2 2h16c1.11 0 2-.89 2-2V8c0-1.11-.89-2-2-2zm-6 0h-4V4h4v2z"/>
  </symbol>

  <!-- Download/CV Icon -->
  <symbol id="icon-download" viewBox="0 0 24 24">
    <title>Download</title>
    <path fill="currentColor" d="M19 9h-4V3H9v6H5l7 7 7-7zM5 18v2h14v-2H5z"/>
  </symbol>

  <!-- Code Icon -->
  <symbol id="icon-code" viewBox="0 0 24 24">
    <title>Code</title>
    <path fill="currentColor" d="M9.4 16.6L4.8 12l4.6-4.6L8 6l-6 6 6 6 1.4-1.4zm5.2 0l4.6-4.6-4.6-4.6L16 6l6 6-6 6-1.4-1.4z"/>
  </symbol>

  <!-- External Link Icon -->
  <symbol id="icon-external" viewBox="0 0 24 24">
    <title>External Link</title>
    <path fill="currentColor" d="M19 19H5V5h7V3H5c-1.11 0-2 .9-2 2v14c0 1.1.89 2 2 2h14c1.1 0 2-.9 2-2v-7h-2v7zM14 3v2h3.59l-9.83 9.83 1.41 1.41L19 6.41V10h2V3h-7z"/>
  </symbol>

  <!-- Arrow Right Icon -->
  <symbol id="icon-arrow-right" viewBox="0 0 24 24">
    <title>Arrow Right</title>
    <path fill="currentColor" d="M8.59 16.59L13.17 12 8.59 7.41 10 6l6 6-6 6-1.41-1.41z"/>
  </symbol>

  <!-- Menu/Hamburger Icon -->
  <symbol id="icon-menu" viewBox="0 0 24 24">
    <title>Menu</title>
    <path fill="currentColor" d="M3 18h18v-2H3v2zm0-5h18v-2H3v2zm0-7v2h18V6H3z"/>
  </symbol>

  <!-- Plus Icon -->
  <symbol id="icon-plus" viewBox="0 0 24 24">
    <path d="M12 5v14M5 12h14" stroke="currentColor" stroke-width="2" stroke-linecap="round" stroke-linejoin="round" fill="none"/>
  </symbol>

  <!-- Close Icon -->
  <symbol id="icon-close" viewBox="0 0 24 24">
    <title>Close</title>
    <path fill="currentColor" d="M19 6.41L17.59 5 12 10.59 6.41 5 5 6.41 10.59 12 5 17.59 6.41 19 12 13.41 17.59 19 19 17.59 13.41 12z"/>
  </symbol>

  <!-- Dashboard/Inicio Icon -->
  <symbol id="icon-dashboard" viewBox="0 0 24 24">
    <title>Dashboard/Inicio</title>
    <path fill="currentColor" d="M3 13h8V3H3v10zm0 8h8v-6H3v6zm10 0h8V11h-8v10zm0-18v6h8V3h-8z"/>
  </symbol>

  <!-- User/Socios Icon -->
  <symbol id="icon-user" viewBox="0 0 24 24">
    <title>Usuario/Socios</title>
    <path fill="currentColor" d="M12 12c2.21 0 4-1.79 4-4s-1.79-4-4-4-4 1.79-4 4 1.79 4 4 4zm0 2c-2.67 0-8 1.34-8 4v2h16v-2c0-2.66-5.33-4-8-4z"/>
  </symbol>

  <!-- Groups/Grupos Icon -->
  <symbol id="icon-groups" viewBox="0 0 24 24">
    <title>Grupos</title>
    <path fill="currentColor" d="M16 11c1.66 0 2.99-1.34 2.99-3S17.66 5 16 5c-1.66 0-3 1.34-3 3s1.34 3 3 3zm-8 0c1.66 0 2.99-1.34 2.99-3S9.66 5 8 5C6.34 5 5 6.34 5 8s1.34 3 3 3zm0 2c-2.33 0-7 1.17-7 3.5V19h14v-2.5c0-2.33-4.67-3.5-7-3.5zm8 0c-.29 0-.62.02-.97.05 1.16.84 1.97 1.97 1.97 3.45V19h6v-2.5c0-2.33-4.67-3.5-7-3.5z"/>
  </symbol>

  <!-- Sports/Deportes Icon -->
  <symbol id="icon-sports" viewBox="0 0 24 24">
    <title>Deportes</title>
    <path fill="currentColor" d="M12 2C6.48 2 2 6.48 2 12s4.48 10 10 10 10-4.48 10-10S17.52 2 12 2zm1 3.3l1.35-.95c1.82.56 3.37 1.76 4.38 3.34l-.39 1.34-1.35.46L15.6 6.7 13 5.3zm-3.35-.95L11 5.3 8.4 6.7 7.01 9.49l-1.35-.46-.39-1.34c1.01-1.58 2.56-2.78 4.38-3.34zM7.08 17.11l-1.14.1C4.73 15.81 4 13.99 4 12c0-.69.1-1.36.26-2l1.1.95 1.48 1.24 1.56 3.25-1.32.67zm3.77 2.51c-.81-.12-1.56-.35-2.24-.69l.43-1.29 1.35-.7 2.61 1.5v1.76c-.7-.07-1.4-.23-2.05-.48l-.1-.1zm1.15-8.51V6.72l1.42.71 2.82 4.07-2.09 2.09H9.85l-2.09-2.09 2.82-4.07 1.42-.71zm4.01 6.5l-.43 1.29c-.68.34-1.43.57-2.24.69l-.1.1c-.65.25-1.35.41-2.05.48V17.4l2.61-1.5 1.35.7.86.01zm2.41-1.01l-1.14-.1-1.32-.67 1.56-3.25 1.48-1.24 1.1-.95c.16.64.26 1.31.26 2 0 1.99-.73 3.81-1.94 5.21z"/>
  </symbol>

  <!-- Money/Tipos y Cuotas Icon -->
  <symbol id="icon-money" viewBox="0 0 24 24">
    <title>Dinero/Cuotas</title>
    <path fill="currentColor" d="M11.8 10.9c-2.27-.59-3-1.2-3-2.15 0-1.09 1.01-1.85 2.7-1.85 1.78 0 2.44.85 2.5 2.1h2.21c-.07-1.72-1.12-3.3-3.21-3.81V3h-3v2.16c-1.94.42-3.5 1.68-3.5 3.61 0 2.31 1.91 3.46 4.7 4.13 2.5.6 3 1.48 3 2.41 0 .69-.49 1.79-2.7 1.79-2.06 0-2.87-.92-2.98-2.1h-2.2c.12 2.19 1.76 3.42 3.68 3.83V21h3v-2.15c1.95-.37 3.5-1.5 3.5-3.55 0-2.84-2.43-3.81-4.7-4.4z"/>
  </symbol>

  <symbol id="icon-trash" viewBox="0 0 640 640">
    <title>Trash</title>
    <path d="M232.7 69.9C237.1 56.8 249.3 48 263.1 48L377 48C390.8 48 403 56.8 407.4 69.9L416 96L512 96C529.7 96 544 110.3 544 128C544 145.7 529.7 160 512 160L128 160C110.3 160 96 145.7 96 128C96 110.3 110.3 96 128 96L224 96L232.7 69.9zM128 208L512 208L512 512C512 547.3 483.3 576 448 576L192 576C156.7 576 128 547.3 128 512L128 208zM216 272C202.7 272 192 282.7 192 296L192 488C192 501.3 202.7 512 216 512C229.3 512 240 501.3 240 488L240 296C240 282.7 229.3 272 216 272zM320 272C306.7 272 296 282.7 296 296L296 488C296 501.3 306.7 512 320 512C333.3 512 344 501.3 344 488L344 296C344 282.7 333.3 272 320 272zM424 272C410.7 272 400 282.7 400 296L400 488C400 501.3 410.7 512 424 512C437.3 512 448 501.3 448 488L448 296C448 282.7 437.3 272 424 272z"/>
  </symbol>
  
</svg>